<?xml version="1.0" encoding="utf-8"?>
<!-- Generator: Adobe Illustrator 22.1.0, SVG Export Plug-In . SVG Version: 6.00 Build 0)  -->
<svg version="1.1" id="Layer_1" xmlns="http://www.w3.org/2000/svg" xmlns:xlink="http://www.w3.org/1999/xlink" x="0px" y="0px"
	 viewBox="0 0 203 50" style="enable-background:new 0 0 203 50;" xml:space="preserve">
<style type="text/css">
	.st0{fill:#F0C84C;}
	.st1{fill:#111111;}
	.st2{fill:#FFFFFF;}
</style>
<g>
	<path class="st0" d="M41,50H11C5.5,50,1,45.5,1,40V10C1,4.5,5.5,0,11,0h30c5.5,0,10,4.5,10,10v30C51,45.5,46.5,50,41,50z"/>
</g>
<g>
	<g>
		<path class="st1" d="M41.7,13.5c-0.1-0.1-0.3-0.2-0.5-0.2c-0.2,0-0.4,0.1-0.5,0.2c-0.1,0.1-0.2,0.3-0.2,0.5c0,0.2,0.1,0.4,0.2,0.5
			c0.1,0.1,0.3,0.2,0.5,0.2c0.2,0,0.4-0.1,0.5-0.2c0.1-0.1,0.2-0.3,0.2-0.5C41.9,13.9,41.9,13.7,41.7,13.5z"/>
	</g>
</g>
<g>
	<g>
		<path class="st1" d="M24.7,31c-0.1-0.1-0.3-0.2-0.5-0.2c-0.2,0-0.4,0.1-0.5,0.2c-0.1,0.1-0.2,0.3-0.2,0.5c0,0.2,0.1,0.4,0.2,0.5
			c0.1,0.1,0.3,0.2,0.5,0.2c0.2,0,0.4-0.1,0.5-0.2c0.1-0.1,0.2-0.3,0.2-0.5C24.9,31.3,24.8,31.2,24.7,31z"/>
	</g>
</g>
<g>
	<g>
		<path class="st1" d="M43.5,16c-0.2-0.4-0.7-0.5-1-0.3c-0.4,0.2-0.5,0.7-0.3,1c2.2,3.9,1.5,8.8-1.6,11.9L40,29.2
			c-0.1-0.4-0.3-0.7-0.6-1l-7.6-7.6c0.5-0.2,1-0.6,1.4-1l1.5-1.5c0.3-0.3,0.3-0.8,0-1c-0.3-0.3-0.8-0.3-1,0l-1.5,1.5
			c-0.7,0.7-1.6,1.1-2.6,1.1h-2.9c-0.2,0-0.4,0.1-0.5,0.2l-2.2,2.2c-0.7,0.7-1.7,0.7-2.4,0c-0.7-0.7-0.7-1.7,0-2.4l5.1-5.1
			c3.1-3.1,8-3.8,11.9-1.7c0.4,0.2,0.8,0.1,1-0.3c0.2-0.4,0.1-0.8-0.3-1c-2.1-1.2-4.6-1.7-7.1-1.3c-2.3,0.3-4.3,1.3-6,2.8
			c-2.1-1.9-4.8-2.9-7.6-2.9c-3.1,0-5.9,1.2-8.1,3.3S7,18.6,7,21.6c0,3.1,1.2,5.9,3.3,8.1l0.3,0.3c0,0,0.1,0.1,0.2,0.1
			c0,0.6,0.3,1.3,0.8,1.8c0.5,0.5,1.3,0.8,2,0.8c0,0,0.1,0,0.1,0c0,0,0,0.1,0,0.1c0,0.7,0.3,1.4,0.8,2c0.5,0.5,1.3,0.8,2,0.8
			c0,0,0.1,0,0.1,0c0,0,0,0.1,0,0.1c0,0.7,0.3,1.4,0.8,2c0.5,0.5,1.3,0.8,2,0.8c0,0,0.1,0,0.1,0c0,0.8,0.2,1.5,0.8,2.1
			c0.5,0.5,1.2,0.8,2,0.8c0.7,0,1.4-0.3,2-0.8l1-1l1.4,1.4c0.5,0.5,1.2,0.8,2,0.8s1.4-0.3,2-0.8c0.6-0.6,0.9-1.4,0.8-2.1
			c0,0,0.1,0,0.1,0c0.7,0,1.4-0.3,2-0.8c0.6-0.6,0.8-1.3,0.8-2.1c0,0,0.1,0,0.1,0c0.7,0,1.4-0.3,2-0.8c0.6-0.6,0.8-1.3,0.8-2.1
			c0,0,0.1,0,0.1,0c0.7,0,1.4-0.3,2-0.8c0.3-0.3,0.5-0.6,0.6-0.9c0.1,0,0.1-0.1,0.2-0.1l1.4-1.4C45.3,26.1,46,20.5,43.5,16z
			 M13.6,31.2c-0.4,0-0.7-0.1-0.9-0.4c-0.2-0.2-0.4-0.6-0.4-0.9c0-0.4,0.1-0.7,0.4-0.9l1.3-1.3c0.2-0.2,0.6-0.4,0.9-0.4
			c0.4,0,0.7,0.1,0.9,0.4c0.5,0.5,0.5,1.3,0,1.9l-1.3,1.3C14.3,31.1,13.9,31.2,13.6,31.2z M15.6,33.7c-0.2-0.2-0.4-0.6-0.4-0.9
			c0-0.4,0.1-0.7,0.4-0.9l1.3-1.3c0,0,0,0,0,0c0.2-0.2,0.6-0.4,0.9-0.4c0.4,0,0.7,0.1,0.9,0.4c0.5,0.5,0.5,1.3,0,1.9l-1.3,1.3
			C16.9,34.3,16.1,34.3,15.6,33.7z M18.5,36.6c-0.2-0.2-0.4-0.6-0.4-0.9c0-0.4,0.1-0.7,0.4-0.9l1.3-1.3c0,0,0,0,0,0
			c0.2-0.2,0.6-0.4,0.9-0.4c0.4,0,0.7,0.1,0.9,0.4c0.5,0.5,0.5,1.3,0,1.9l-1.3,1.3C19.8,37.2,19,37.2,18.5,36.6z M24.5,38.3
			l-1.3,1.3c-0.2,0.2-0.6,0.4-0.9,0.4c-0.4,0-0.7-0.1-0.9-0.4c-0.5-0.5-0.5-1.3,0-1.9l1.3-1.3c0,0,0,0,0,0c0.2-0.2,0.6-0.4,0.9-0.4
			c0.4,0,0.7,0.1,0.9,0.4c0.2,0.2,0.4,0.6,0.4,0.9C24.9,37.7,24.7,38,24.5,38.3z M38.4,31.2c-0.2,0.2-0.6,0.4-0.9,0.4
			c-0.4,0-0.7-0.1-0.9-0.4l-3.1-3.1c0,0,0,0,0,0l-2.9-2.9c-0.3-0.3-0.8-0.3-1,0c-0.3,0.3-0.3,0.8,0,1l6,6c0.5,0.5,0.5,1.3,0,1.9
			c-0.2,0.2-0.6,0.4-0.9,0.4c-0.4,0-0.7-0.1-0.9-0.4l-6-6c-0.3-0.3-0.8-0.3-1,0c-0.3,0.3-0.3,0.8,0,1l2.9,2.9c0,0,0,0,0,0l3.1,3.1
			c0.5,0.5,0.5,1.3,0,1.9c-0.5,0.5-1.3,0.5-1.9,0l-3.1-3.1c-0.1-0.1-0.1-0.1-0.2-0.1l-0.9-0.9c-0.3-0.3-0.8-0.3-1,0
			c-0.3,0.3-0.3,0.8,0,1l4.1,4.1c0.5,0.5,0.5,1.3,0,1.9c-0.2,0.2-0.6,0.4-0.9,0.4c-0.4,0-0.7-0.1-0.9-0.4l-1.6-1.6
			c0.1-0.3,0.2-0.7,0.2-1c0-0.7-0.3-1.4-0.8-2c-0.5-0.5-1.2-0.8-2-0.8c0,0-0.1,0-0.1,0c0-0.8-0.2-1.5-0.8-2.1
			c-0.5-0.5-1.2-0.8-2-0.8c0,0-0.1,0-0.1,0c0-0.8-0.2-1.5-0.8-2.1c-0.5-0.5-1.2-0.8-2-0.8c0,0-0.1,0-0.1,0c0-0.8-0.2-1.5-0.8-2.1
			c-1.1-1.1-2.9-1.1-4,0l-1.3,1.3c-0.2,0.2-0.3,0.3-0.4,0.5c-1.7-1.9-2.7-4.3-2.7-6.8c0-2.7,1-5.2,2.9-7c1.9-1.9,4.4-2.9,7-2.9
			c2.4,0,4.7,0.9,6.5,2.4l-4.6,4.6c-0.6,0.6-0.9,1.4-0.9,2.3c0,0.9,0.3,1.7,0.9,2.3c0.6,0.6,1.4,0.9,2.3,0.9c0.8,0,1.6-0.3,2.3-0.9
			l2-2h2.6c0.2,0,0.4,0,0.6,0l8.2,8.2C38.9,29.8,38.9,30.7,38.4,31.2z"/>
	</g>
</g>
<g>
	<path class="st2" d="M66.3,34.1c-0.3-0.1-0.5-0.3-0.6-0.5c0-0.6,0-1.1,0-1.6s0-0.8,0.1-1.1c0.1-0.9,0.1-1.8,0.1-2.7V27
		c0-1,0-1.8-0.1-2.5c-0.1-0.7-0.2-1.4-0.3-2.1v-8h3.7c0.3,0.1,0.5,0.2,0.7,0.2c0.2,0,0.5,0,1,0c0.2,0,0.4-0.1,0.5-0.2
		c0.9,0,1.8,0,2.9-0.1l1-0.1c0.3,0,1,0.1,2.4,0.2c0,0,0.1,0.1,0.1,0.2c0,0.1,0.1,0.1,0.1,0.2c0,0.3,0,0.6-0.1,0.9
		c-0.1,0.3-0.1,0.5-0.1,0.8l0,0.3L77,17c-0.8-0.1-1.7-0.1-2.5-0.1c-2.2,0-4.2,0.2-5.9,0.7c-0.1,0.2-0.2,0.4-0.2,0.6
		c0,0.2,0,0.4,0,0.6c0,0.2,0,0.5,0.1,0.9c0.1,0.4,0.1,0.8,0.1,1l-0.2,1.7l0.4,0.4l1,0.1c0.5,0,1,0,1.6-0.1c0.2-0.1,0.4-0.1,0.6-0.1
		c0.1,0.1,0.2,0.2,0.3,0.2h0l0.1,0c0.2,0,0.2-0.1,0.2-0.3h3.4c0.2,0.2,0.3,0.4,0.4,0.6l0.4-0.2c-0.1,0.1-0.1,0.2-0.1,0.3
		c0,0.1,0,0.3,0,0.5c0,0.7,0,1.2,0,1.3l-0.4,0.3c-1.6,0-3.7,0.1-6.2,0.2l-0.8,0l-0.3,0c-0.2,0-0.2,0.1-0.2,0.2v5.6l0.2,0.3
		c0,0,0.4,0.1,1.1,0.1c0.7,0.1,1.4,0.1,1.9,0.1c0.2,0,0.7-0.1,1.4-0.2c0.8-0.2,1.3-0.3,1.7-0.3c0.3,0,0.6,0,0.9,0.1
		c0.4,0,0.5,0.1,0.6,0.1l0.2,0.2c0-0.1,0.1-0.2,0.3-0.2l0.4,0l-0.3,0.2l0.4,0h0.2c0.1,0,0.2,0,0.3,0c0.1,0,0.1,0.1,0.2,0.2
		c0.1,0,0.1-0.1,0.2-0.1c0.1,0,0.1-0.1,0.2-0.1c0.2,0.1,0.3,0.3,0.3,0.5c0,0.2,0.1,0.4,0.1,0.8c0,1-0.1,1.6-0.4,1.9l-0.8,0
		c-0.5,0-0.9,0-1.2-0.1c-0.3-0.1-0.7-0.2-1.1-0.4h-7.7C66.9,34.3,66.6,34.2,66.3,34.1z M67,16.6c0.2,0,0.6-0.2,1.3-0.5
		s1.1-0.5,1.1-0.6c-0.3-0.1-0.8-0.2-1.5-0.2c-1,0-1.4,0-1.4,0l-0.2,0.9c0.2,0,0.5-0.1,1-0.4l-0.4,0.8H67z M66.6,17.1
		c-0.2,0.1-0.2,0.3-0.2,0.5c0.2,0,0.4-0.1,0.5-0.2s0.3-0.3,0.4-0.4h-0.1C67,17,66.8,17,66.6,17.1z M66.9,18.7
		c-0.1,0.1-0.3,0.1-0.3,0.2c-0.1,0.1-0.1,0.2-0.1,0.3l0,0.3c0.3-0.3,0.6-0.5,0.7-0.7c0.1-0.2,0.2-0.5,0.2-0.8l0-0.5
		c-0.1,0.1-0.3,0.3-0.5,0.4s-0.3,0.3-0.3,0.3c0,0.2,0.2,0.2,0.5,0.2l0.3,0C67.1,18.6,67,18.7,66.9,18.7z M66.7,20.8
		c-0.1,0-0.2,0.1-0.2,0.1V22c0.2,0,0.4-0.1,0.7-0.4c0.3-0.3,0.4-0.5,0.4-0.8c0,0-0.1-0.1-0.2-0.1c-0.1,0-0.3-0.1-0.4-0.1
		C66.9,20.7,66.8,20.7,66.7,20.8z M66.7,23.9c0.1,0.2,0.1,0.3,0.1,0.3l1-1V23c-0.3,0-0.6,0-0.8,0.1s-0.3,0.1-0.3,0.3
		C66.6,23.6,66.6,23.7,66.7,23.9z M66.6,20.3c0.4,0,0.6,0,0.7-0.1c0.1,0,0.2-0.1,0.2-0.2c0-0.1,0-0.3,0-0.7
		C67.3,19.3,66.9,19.7,66.6,20.3z M66.7,29.8c0,0.1,0,0.2,0,0.2c0,0.1,0,0.1,0,0.1H67c0,0,0.1-0.1,0.2-0.3c0.1-0.2,0.1-0.4,0.1-0.5
		c0-0.1,0-0.2-0.1-0.3c0-0.1-0.1-0.2-0.1-0.2l0,0C66.8,28.8,66.7,29.1,66.7,29.8z M67.1,22.2c-0.2,0.1-0.3,0.3-0.3,0.6
		c0.7,0,1-0.3,1-0.8C67.5,22,67.3,22,67.1,22.2z M67,25.8c-0.2,0.1-0.3,0.3-0.3,0.5c0.2,0,0.4,0,0.5-0.1c0.1-0.1,0.1-0.2,0.1-0.4
		l0-0.2C67.3,25.5,67.2,25.6,67,25.8z M66.8,25.2c0.2,0,0.3,0,0.4-0.1c0.1-0.1,0.2-0.2,0.2-0.3C67,24.7,66.8,24.9,66.8,25.2z
		 M66.9,27.2c0,0.1,0.1,0.1,0.1,0.2c0.2-0.1,0.2-0.3,0.2-0.6c-0.1,0-0.2,0-0.3,0c-0.1,0-0.2,0.1-0.2,0.2
		C66.8,27,66.8,27.1,66.9,27.2z M67.1,31.6c0.1-0.1,0.1-0.3,0.1-0.4h-0.4v0.6C66.9,31.8,67.1,31.8,67.1,31.6z M66.9,33.2
		c0.1,0.1,0.1,0.1,0.1,0.1c0,0,0.2-0.2,0.4-0.4c0.2-0.3,0.4-0.4,0.4-0.5h-0.5V32c-0.1,0.1-0.2,0.2-0.3,0.5c-0.1,0.3-0.2,0.4-0.2,0.4
		V33C66.8,33,66.8,33.1,66.9,33.2z M67,27.9c-0.1,0.1-0.1,0.4-0.1,0.6c0.3,0,0.5-0.3,0.5-0.9C67.2,27.7,67,27.8,67,27.9z M67.5,33.3
		c0.2,0,0.4,0,0.5-0.1c0.1-0.1,0.3-0.2,0.4-0.5C68.2,32.9,67.8,33.1,67.5,33.3z M69.6,24.4c0.3-0.1,0.4-0.3,0.4-0.5h-2.1
		c-0.1,0-0.2,0.1-0.2,0.4h1.1v0.3C69.1,24.6,69.3,24.5,69.6,24.4z M69.1,33.1c-0.1,0-0.2,0.1-0.2,0.1l0.2,0c0.2,0,0.3-0.1,0.4-0.2
		h-0.1C69.2,33.1,69.2,33.1,69.1,33.1z M69.9,16.1c-0.1,0.1-0.1,0.2-0.1,0.2c0,0,0,0.1,0.1,0.1c0.2,0,0.3-0.1,0.3-0.3l0-0.2
		C70,15.9,69.9,16,69.9,16.1z M70.6,23.9c-0.3,0.2-0.5,0.5-0.5,0.8c0.3,0,0.7-0.1,1.1-0.3c0.4-0.2,0.7-0.5,0.8-0.8l-0.4,0
		C71.2,23.6,70.9,23.7,70.6,23.9z M70.7,32.8c-0.2,0.1-0.4,0.3-0.5,0.5l0.5,0c0.3,0,0.6,0,0.7-0.1c0.2-0.1,0.3-0.2,0.4-0.5l-0.4,0
		C71.2,32.7,70.9,32.7,70.7,32.8z M71,15.5h0.2v-0.2L71,15.5z M72.5,24.6c0.1,0,0.1-0.1,0.1-0.4c0-0.2,0.1-0.4,0.1-0.6h-0.2
		l-0.9,0.9H72.5z M72.9,32.9c-0.1,0.1-0.3,0.3-0.4,0.4c0.1,0,0.2-0.1,0.4-0.2s0.3-0.3,0.4-0.4l-0.1,0C73.1,32.7,73,32.8,72.9,32.9z
		 M74.2,23.8c-0.2,0.2-0.3,0.4-0.4,0.6h1.5c-0.2-0.3-0.4-0.6-0.6-0.9C74.6,23.5,74.4,23.6,74.2,23.8z M74,32.4
		c-0.1,0-0.1,0.1-0.2,0.1h0.1c0.3,0,0.5-0.1,0.5-0.2h-0.2C74.1,32.3,74.1,32.3,74,32.4z M74.5,33c0.1,0,0.3-0.1,0.4-0.3v0.4l1.5-0.6
		h-1.9l-0.7,0.6C74.2,33.1,74.4,33.1,74.5,33z M74.5,15.3c0,0.2,0,0.3,0.1,0.3c0.1,0.1,0.2,0.1,0.4,0.1c0.2,0,0.4,0,0.6-0.2
		c0.2-0.1,0.3-0.2,0.3-0.4h-1.3C74.5,15.2,74.5,15.2,74.5,15.3z M75.9,33.1c-0.3,0.1-0.4,0.2-0.4,0.2v0.3c0.2,0,0.4-0.1,0.6-0.2
		c0.2-0.1,0.4-0.3,0.5-0.5h-0.2C76.3,32.9,76.1,33,75.9,33.1z M77.4,33.5c0.1-0.2,0.1-0.6,0.1-1h-0.8v1.3
		C77.1,33.8,77.3,33.7,77.4,33.5z"/>
	<path class="st2" d="M83.7,33.2c-0.7-0.6-1.2-0.9-1.3-0.9c-0.1,0-0.2,0-0.2,0c-0.1,0-0.2,0.1-0.2,0.1c0-0.2-0.3-0.7-0.9-1.6
		c-1-1.4-1.5-2.4-1.5-2.8c0-0.1,0-0.2,0-0.4l0-0.9c0-0.3-0.1-0.6-0.2-0.9v-4c0.1-0.1,0.2-0.3,0.3-0.6c0.1-0.2,0.1-0.5,0.1-0.6
		c0-0.2,0.1-0.3,0.1-0.4c0.1-0.8,0.3-1.3,0.5-1.6c1.1-1.7,2.5-2.9,4.1-3.6c1.6-0.7,3.6-1.1,5.8-1.1c1.5,0,2.3,0.2,2.3,0.6h1
		c0,0.2,0.1,0.2,0.3,0.2c0.2,0,0.3,0,0.3,0c0,0,0.2,0.1,0.5,0.2c0.3,0.1,0.5,0.2,0.7,0.3l0,0.1c0,0.1,0,0.2,0.1,0.2
		c0.1,0,0.1,0.3,0.1,0.8c0,0.9-0.2,1.4-0.6,1.4c-0.7,0-1.6-0.1-2.6-0.4c-1.1-0.2-2-0.4-2.6-0.4c-0.4,0-0.9,0.1-1.2,0.2
		c-0.4,0.1-0.9,0.3-1.5,0.6c-1.6,0.7-2.8,1.6-3.5,3c-0.7,1.3-1,2.9-1,4.8c0,1.6,0.3,3,0.9,4.3c0.6,1.3,1.6,2,2.8,2.2
		c0.4,0,0.8,0.1,1,0.1c1.4,0.2,2.6,0.2,3.6,0.2l1.7,0c0.3-0.2,0.5-0.8,0.5-1.7c0-0.3-0.1-0.6-0.1-1.1c-0.1-0.5-0.1-0.9-0.2-1.3
		c-0.1-0.3-0.2-0.4-0.3-0.5c-0.1-0.1-0.3-0.1-0.6-0.1l-0.4,0c-0.4,0-0.6-0.1-0.8-0.3c-0.2-0.2-0.3-0.7-0.3-1.4
		c0-0.8,0.2-1.1,0.5-1.1c0.1,0,0.1,0,0.2,0c0.3,0,0.6,0,1.1,0l2.3,0c0.4,0,0.7,0,1,0.1c0.3,0.1,0.5,0.1,0.5,0.3v7.4
		c0,0.7-0.3,1.3-0.9,1.6c-0.6,0.3-1.3,0.5-2.1,0.5c-0.1,0-0.2,0-0.4-0.1c-0.1-0.1-0.2-0.1-0.3-0.1c-0.3,0.2-0.6,0.4-1.1,0.4
		c-0.5,0.1-1.1,0.1-1.8,0.1h-0.9c-0.8,0-1.5,0-2.1-0.1c-0.6-0.1-1-0.3-1.4-0.6C84.8,34.2,84.4,33.8,83.7,33.2z M82.2,31.2
		c0.5,0.6,0.9,1,1.2,1.3c0.4,0.3,0.8,0.4,1.2,0.4c0,0,0.2-0.1,0.4-0.2c0,0,0-0.1-0.1-0.1c0,0-0.1-0.1-0.1-0.1
		c-0.3-0.2-0.4-0.3-0.4-0.4V32c0-0.1,0-0.2-0.1-0.2c-0.2-0.2-0.5-0.4-0.7-0.4c-0.1,0-0.2,0-0.2-0.1c-0.1,0-0.2-0.2-0.3-0.3
		c-0.2-0.3-0.5-0.9-0.9-2c-0.5-1-0.7-1.7-0.7-1.9c0,0,0-0.1,0.1-0.1s0.1-0.1,0.1-0.2s0-0.2-0.1-0.4c-0.1-0.2-0.2-0.3-0.3-0.5
		l0.4-0.2v-1.3c0-0.1-0.3-0.2-1-0.2l0.2-0.1L80.8,24h1v-0.4l-0.2-0.5c-0.1-0.1-0.2-0.2-0.3-0.3c-0.1-0.1-0.1-0.2-0.1-0.3
		c-0.8,0-1.3,0.1-1.3,0.2v1.5c0.2,0,0.3,0.1,0.3,0.3c0,0.1,0,0.2,0,0.3c0,0.1,0,0.2,0,0.3c0,0.1,0,0.2,0.1,0.3
		c0.1,0.1,0.2,0.1,0.4,0.1c0.2,0,0.3,0,0.4,0c-0.1,0.1-0.2,0.2-0.4,0.2c-0.2,0-0.3,0.1-0.4,0.2s-0.2,0.2-0.2,0.3
		c0,0.1,0,0.2,0.1,0.4c0.1,0.2,0.1,0.4,0.1,0.6l0,1.1c0.1,0.1,0.2,0.2,0.3,0.5c0,0.3,0.1,0.4,0.1,0.4c0,0.1,0.2,0.3,0.4,0.5
		c0.2,0.2,0.3,0.3,0.3,0.4l0,0.1C81.5,30.4,81.8,30.7,82.2,31.2z M80.5,22.1h1.3c0-0.2-0.1-0.3-0.2-0.5c-0.1-0.2-0.3-0.3-0.4-0.4
		h0.1c0.1,0,0.2,0,0.3,0.1c0.2,0.1,0.3,0.1,0.3,0.1c-0.1-0.2-0.2-0.3-0.2-0.4c0-0.1,0.1-0.1,0.3-0.2c0.2,0,0.3-0.1,0.3-0.2
		c0-0.1,0-0.3-0.1-0.4c-0.1-0.1-0.1-0.3-0.1-0.4l0-0.3l0.6,0.6c0.1-0.1,0.3-0.2,0.4-0.5c0.1-0.2,0.2-0.4,0.2-0.4
		c-0.3-0.1-0.5-0.3-0.5-0.4c0.1,0,0.2-0.2,0.2-0.4c0-0.1,0-0.2,0-0.3c0-0.1,0-0.2,0-0.2c0.2,0.2,0.3,0.4,0.4,0.4
		c0.1,0.1,0.2,0.1,0.4,0.1c0.2,0,0.3-0.1,0.4-0.3c0.1-0.2,0.2-0.4,0.2-0.6s0.1-0.3,0.1-0.4c0.1,0.3,0.2,0.5,0.4,0.6
		c0.1,0,0.1-0.1,0.1-0.1s0-0.1,0-0.2c0-0.1,0-0.2-0.1-0.4c-0.1-0.2-0.2-0.3-0.3-0.4l0-0.1l0.6,0.4l0.2-0.2l-0.2-0.9
		c-0.3,0.1-0.5,0.3-0.6,0.5c-0.1,0.2-0.2,0.5-0.3,0.8c-0.1-0.2-0.2-0.4-0.4-0.6c-0.7,0.5-1,0.8-1,0.9c0,0,0.1,0.1,0.3,0.1
		s0.3,0.1,0.3,0.1c0,0,0,0,0,0.1c0,0,0,0.1,0,0.1h-1.1c-0.1,0-0.2,0.1-0.5,0.4c-0.3,0.3-0.5,0.5-0.6,0.7c-0.1,0.1-0.4,0.6-0.7,1.5
		c-0.3,0.9-0.5,1.3-0.5,1.3C80.1,22,80.2,22.1,80.5,22.1z M85.8,33.7c0.1,0,0.2,0,0.3-0.1c0,0,0.1-0.1,0.1-0.2
		c0-0.1,0.1-0.2,0.2-0.3c0-0.1-0.2-0.2-0.4-0.2c-0.3,0-0.5,0-0.7,0.1c-0.2,0-0.3,0.1-0.4,0.3C85.1,33.5,85.4,33.7,85.8,33.7z
		 M85.9,17c0.3,0,0.5-0.1,0.7-0.4C86.3,16.2,86,16,85.7,16C85.7,16.7,85.7,17,85.9,17z M86.2,15.8c0.2,0.1,0.3,0.2,0.4,0.2
		c0.3-0.4,0.4-0.8,0.4-1.1c-0.6,0.2-1,0.4-1.1,0.6C85.9,15.6,86,15.7,86.2,15.8z M86.8,33.1c-0.1,0.1-0.2,0.3-0.2,0.7
		c0.4,0,0.6-0.1,0.8-0.2c0.1-0.1,0.2-0.3,0.2-0.7C87.2,32.9,86.9,33,86.8,33.1z M87.1,16C87,16.3,87,16.5,87,16.6
		c0.2,0,0.3-0.1,0.5-0.2c0.2-0.1,0.2-0.3,0.2-0.5v-0.2c0-0.5-0.1-0.8-0.3-0.8l-0.1,0C87.3,15.4,87.2,15.7,87.1,16z M87.7,33.7
		c0,0.1,0.1,0.1,0.4,0.2c0.3,0,0.5,0.1,0.7,0.1c0-0.6-0.3-0.8-0.9-0.8c0,0-0.1,0.1-0.1,0.2C87.8,33.4,87.7,33.5,87.7,33.7L87.7,33.7
		z M88.1,15.4c0.1,0.2,0.3,0.3,0.3,0.3c0.1,0,0.2-0.1,0.2-0.3c0-0.2,0.1-0.4,0.1-0.5h-0.8C87.8,15.1,87.9,15.2,88.1,15.4z
		 M89.5,33.8c0.2,0,0.3,0,0.4,0c0.1,0,0.3-0.1,0.4-0.2h2l0.2-0.2c-1.5-0.1-2.6-0.2-3.2-0.2l-0.4,0C89,33.6,89.1,33.8,89.5,33.8z
		 M89.2,15.9h0.6c0,0,0-0.2-0.1-0.3c-0.1-0.2-0.2-0.3-0.3-0.4C89.2,15.3,89.2,15.6,89.2,15.9z M90.7,15.1h-0.4l0.2,0.4
		C90.6,15.5,90.7,15.3,90.7,15.1z M91.1,26.5c0.1,0,0.1,0,0.2,0c0.1,0,0.4-0.1,0.9-0.4c0.5-0.3,0.7-0.4,0.9-0.5h-1.6L91,26.4
		C91,26.5,91.1,26.5,91.1,26.5z M91.4,16.1h0.4c0-0.1,0-0.2-0.1-0.3c0-0.1-0.1-0.2-0.2-0.3C91.4,15.6,91.4,15.8,91.4,16.1z
		 M91.8,26.8L91.8,26.8c0.1,0,0.4-0.2,0.9-0.5h-0.1C92.4,26.2,92.1,26.4,91.8,26.8z M94.1,29.2c-0.1,0.1-0.2,0.1-0.3,0.2
		c-0.1,0.1-0.1,0.2-0.1,0.3c0.5,0,0.8-0.2,1-0.7c0.2-0.5,0.3-0.9,0.3-1.4c0-0.5,0-1.1,0-1.8l-0.2-0.2h-1.4l-0.8,0.9l0.2,0
		c0.1,0,0.3-0.1,0.6-0.2c0.1,0,0.2,0,0.3-0.1c0.1,0,0.2-0.1,0.3-0.1c0,0.2-0.1,0.4-0.3,0.6c-0.2,0.3-0.3,0.5-0.3,0.7h1.1
		c0,0.2-0.2,0.5-0.5,0.8c-0.3,0.3-0.5,0.5-0.5,0.7h0.6C94.3,29.1,94.2,29.2,94.1,29.2z M93.2,33.4c0.1,0,0.2,0,0.3,0
		c0.1,0,0.1,0,0.2,0c0.6,0,1-0.1,1.1-0.4c-0.2-0.1-0.3-0.1-0.5-0.2c-0.2,0-0.3,0-0.5,0c-0.2,0-0.4,0-0.5,0.1c-0.1,0-0.3,0.1-0.4,0.3
		C93,33.4,93.1,33.4,93.2,33.4z M94.1,16.7c0.3,0,0.5,0,0.5,0c0-0.1-0.1-0.3-0.3-0.5c-0.2-0.2-0.3-0.3-0.3-0.3
		c-0.1,0-0.2,0.1-0.3,0.3c-0.1,0.1-0.2,0.3-0.3,0.3C93.6,16.6,93.8,16.7,94.1,16.7z M93.7,27.9c-0.1,0.1-0.2,0.3-0.2,0.6h0.3
		l0.5-0.7h-0.1C94,27.7,93.8,27.8,93.7,27.9z M94.2,32.5c0.3,0.1,0.5,0.2,0.5,0.2c0.1,0,0.1-0.1,0.2-0.3s0.1-0.3,0.1-0.5
		c-0.8,0-1.2,0.1-1.2,0.3C93.8,32.3,93.9,32.4,94.2,32.5z M94.6,30.5c0.2-0.2,0.3-0.4,0.3-0.7c-0.4,0-0.7,0.1-0.9,0.4l0.4,0
		l-0.2,0.2l-0.4,0.1v0.3C94.1,30.7,94.4,30.6,94.6,30.5z M94,31.4h0.9v-0.8L94,31V31.4z"/>
	<path class="st2" d="M111.1,23.5c0.6,1.2,0.9,2.8,0.9,4.6l0,1c0,0.1-0.1,0.2-0.2,0.2c-0.1,0.1-0.2,0.1-0.3,0.2
		c-0.1,0.1-0.1,0.2-0.1,0.3c0,0.1,0,0.2,0,0.2c0,0.1,0.1,0.1,0.2,0.2c-0.1,0-0.2,0.1-0.3,0.2c-0.1,0.2-0.2,0.4-0.3,0.8
		c-0.2,0.6-0.3,0.9-0.5,1c-1.1,0.8-2.3,1.4-3.5,1.8c-1.2,0.4-2.6,0.5-4.1,0.5l-2.3-1.5c-0.3,0-0.6-0.1-0.8-0.3
		c-0.2-0.2-0.4-0.5-0.7-1c-0.1-0.2-0.3-0.4-0.5-0.7c-0.2-0.2-0.3-0.4-0.5-0.5c-0.3-0.7-0.5-1.4-0.6-2.1c-0.1-0.7-0.2-1.6-0.2-2.5
		l1.1-3.2c0,0,0.3-0.3,0.7-0.8s0.9-0.9,1.2-1.2c0.5-0.5,1.2-0.9,2-1.2c0.8-0.3,1.6-0.5,2.3-0.5c0.5,0,1.1,0.1,1.6,0.3
		c0.5,0.2,1.1,0.5,1.5,0.8C109.4,21.2,110.4,22.3,111.1,23.5z M98.6,25.4c0,0-0.1,0.1-0.2,0.2c-0.1,0.2-0.2,0.4-0.2,0.8
		c0.3,0,0.5-0.1,0.8-0.2c0.2-0.1,0.5-0.3,0.8-0.6c0-0.1-0.1-0.2-0.5-0.2c0,0-0.1,0-0.1,0c0,0,0,0-0.1,0c0,0,0,0,0,0
		C98.8,25.4,98.6,25.4,98.6,25.4z M99.2,28.1c0.4-0.2,0.7-0.4,0.7-0.6h-1.3c-0.2,0-0.3,0.3-0.3,0.9C98.4,28.4,98.7,28.3,99.2,28.1z
		 M100.1,26.4c0-0.3,0-0.5,0-0.6c-0.1,0.1-0.2,0.2-0.4,0.2c-0.2,0.1-0.3,0.1-0.3,0.2c-0.5,0.2-0.9,0.5-0.9,0.7h1.4
		C100.1,26.9,100.1,26.7,100.1,26.4z M98.8,30.1c0,0,0.1-0.1,0.3-0.2s0.3-0.2,0.4-0.4c0.1-0.1,0.2-0.3,0.2-0.4l-0.3,0
		c-0.1,0-0.3,0-0.5,0c-0.2,0-0.3,0.1-0.3,0.2L98.8,30.1z M98.9,24c-0.1,0.3-0.1,0.5-0.1,0.8c0.3,0,0.7-0.1,1-0.2
		c0.3-0.1,0.6-0.3,0.7-0.6c-0.3-0.2-0.7-0.4-1.2-0.4C99.1,23.6,99,23.7,98.9,24z M99.7,28.2c-0.3,0.1-0.5,0.3-0.6,0.4l0.9,0.2
		c0.1,0,0.1-0.1,0.2-0.3s0.1-0.4,0.1-0.6C100.1,28,99.9,28,99.7,28.2z M99.2,30.6c0.4-0.1,0.8-0.2,1.3-0.5c0-0.2,0-0.3-0.1-0.4
		c0-0.1-0.1-0.2-0.2-0.2l-0.1,0l-0.9,0.9V30.6z M99.9,22.7c-0.2,0.2-0.3,0.3-0.3,0.4c0,0.2,0.2,0.4,0.5,0.4c0.1,0,0.3,0,0.4,0
		c0.2,0,0.3,0,0.3,0l0.2-0.8l-0.8-0.2C100.1,22.5,100,22.5,99.9,22.7z M100.2,31.9c0.2,0,0.5-0.1,0.7-0.3c0.2-0.2,0.4-0.4,0.4-0.6
		c-0.3,0-0.5,0.1-0.6,0.2v-0.9L99.6,31V31v0.1C99.8,31.7,100,31.9,100.2,31.9z M100.4,25c0.1-0.1,0.2-0.2,0.3-0.4l-0.1,0
		c-0.1,0-0.3,0.1-0.4,0.2c-0.2,0.1-0.3,0.3-0.3,0.4C100.1,25.1,100.3,25,100.4,25z M101.4,32.6c0.1,0,0.2-0.1,0.3-0.3v0.6
		c0.2,0,0.5,0,0.7-0.1s0.3-0.3,0.3-0.5c0-0.1-0.1-0.3-0.4-0.4c-0.3-0.1-0.5-0.2-0.6-0.2h-0.1l-1.1,0.4c0,0.2,0.1,0.3,0.2,0.4
		c0.1,0.1,0.2,0.2,0.4,0.2C101.2,32.6,101.3,32.6,101.4,32.6z M100.9,22c-0.2,0.1-0.3,0.2-0.3,0.3h0.4c0.6,0,1-0.1,1-0.3l-0.5-0.4
		c0,0,0-0.1,0.1-0.1c0,0,0.1-0.1,0.1-0.1c0.1,0,0.3,0,0.5,0.1c0.2,0.1,0.4,0.1,0.4,0.1c0.2,0,0.3,0,0.4-0.1c0.1-0.1,0.3-0.2,0.5-0.4
		c0.2-0.3,0.5-0.5,0.7-0.5h-0.3h-0.2c-0.1,0-0.2,0-0.3,0c-0.1,0-0.1-0.1-0.2-0.2c-0.2,0-0.4,0-0.6,0.1c-0.2,0.1-0.4,0.2-0.7,0.4
		c-0.4,0.3-0.7,0.5-1,0.5c0,0.1,0.1,0.1,0.1,0.2C101.1,21.8,101,21.9,100.9,22z M103.5,22.4c-0.5,0.2-1,0.6-1.5,1.2
		c-0.1,0.1-0.2,0.3-0.2,0.6c0,0.2-0.1,0.3-0.1,0.4c0,0.1-0.1,0.2-0.2,0.2c-0.1,0.2-0.2,0.6-0.3,1.2c-0.1,0.6-0.2,1-0.2,1.2
		c0,0.1,0,0.3,0,0.5c0,1.7,0.9,2.9,2.6,3.8l1.4,0.1c1.2,0,2.1-0.2,2.8-0.6c0.6-0.4,1.1-0.9,1.3-1.7s0.4-1.7,0.4-2.9
		c0-0.3-0.1-0.8-0.3-1.4s-0.3-1.1-0.5-1.4c-0.5-0.1-1-0.5-1.5-1.3c-0.2,0-0.5,0-0.9-0.1c-0.4-0.1-0.8-0.1-1-0.1
		C104.5,22,104,22.2,103.5,22.4z M103.1,32.6c-0.2,0-0.4,0.1-0.6,0.2c-0.2,0.2-0.3,0.3-0.3,0.5C102.8,33.3,103.1,33.1,103.1,32.6z
		 M103.7,32.8c0.2,0,0.4-0.1,0.5-0.2l-0.3,0h-0.1c-0.2,0-0.3,0.1-0.4,0.2L103.7,32.8z M109.2,31.9c-0.1,0-0.3,0-0.5,0
		c-0.3,0-0.5,0-0.7,0.1s-0.4,0.2-0.6,0.3c-0.2,0.2-0.4,0.3-0.4,0.3h-2.4l-0.5,0.6c0.3,0.1,0.5,0.2,0.7,0.2c0.2,0,0.5,0,0.8,0
		c0.4,0,0.8-0.1,1.4-0.3s1.1-0.4,1.5-0.6c0.5-0.2,0.7-0.4,0.7-0.4V31.9z M105.5,20.7c-0.2,0.2-0.3,0.4-0.4,0.5l0.8,0.1
		c0.8,0.1,1.3,0.2,1.5,0.2c0.1,0,0.2,0,0.3,0c0.1,0,0.2-0.1,0.3-0.2c-0.2-0.3-0.5-0.5-0.9-0.7c-0.4-0.2-0.8-0.3-1.1-0.3
		C105.9,20.4,105.7,20.5,105.5,20.7z M106.2,33.9l-0.2,0c-0.1,0-0.2,0-0.3,0c-0.1,0-0.1,0.1-0.1,0.2L106.2,33.9z M108,33.4
		c0,0,0.1-0.1,0.1-0.2l-0.6,0.2l0.2,0C107.8,33.4,107.9,33.4,108,33.4z M107.6,21.7c0,0.1,0.1,0.2,0.3,0.3c0.2,0.1,0.4,0.1,0.5,0.1
		v-0.4H107.6z M108.7,22.2c0,0.1-0.1,0.2-0.1,0.3c0,0.3,0.1,0.5,0.4,0.6c0,0,0.1-0.1,0.3-0.1c0.1-0.1,0.2-0.2,0.3-0.2
		c-0.1-0.1-0.2-0.2-0.4-0.4c-0.2-0.2-0.3-0.2-0.3-0.2C108.8,22,108.7,22.1,108.7,22.2z M109.8,31.4c0.3-0.1,0.5-0.3,0.5-0.6
		c0-0.1-0.2-0.2-0.5-0.2c-0.3,0-0.5,0.1-0.7,0.3c-0.2,0.2-0.3,0.4-0.3,0.7C109.1,31.6,109.4,31.5,109.8,31.4z M109.2,23.2v0.3
		c0.3,0,0.5-0.1,0.6-0.3H109.2z M109.7,32.5L109.7,32.5c-0.2,0-0.3,0.1-0.4,0.2L109.7,32.5z M110.3,23.8c-0.1-0.1-0.2-0.2-0.3-0.2
		c-0.3,0-0.4,0.1-0.4,0.3c0,0.3,0.3,0.4,0.8,0.4C110.3,24.1,110.3,23.9,110.3,23.8z M110.6,30.1c0.2-0.1,0.2-0.3,0.2-0.6H110
		c0,0.1,0,0.3-0.1,0.4c-0.1,0.1-0.2,0.3-0.3,0.3l0.5,0C110.3,30.3,110.5,30.2,110.6,30.1z M110.2,24.8c0.1-0.1,0.1-0.2,0.1-0.3h-0.4
		v0.4C110,24.9,110.1,24.9,110.2,24.8z M111.2,28.4c0-0.2-0.1-0.3-0.2-0.4c-0.2,0-0.4-0.1-0.6-0.1c0,0.2,0,0.4-0.1,0.6
		c-0.1,0.2-0.1,0.4-0.1,0.6C110.8,29.2,111.2,28.9,111.2,28.4z M110.9,25.3c-0.1-0.2-0.2-0.3-0.3-0.3c-0.3,0-0.5,0.1-0.5,0.4
		c0,0.1,0,0.2,0.1,0.3c0.1,0.1,0.1,0.2,0.1,0.3v0c0,0.1,0,0.1-0.1,0.2c-0.1,0.1-0.1,0.1-0.1,0.1l0.1,0c0,0,0.1-0.1,0.2-0.2
		s0.2-0.2,0.2-0.2c0.1,0,0.2,0,0.2-0.1c0.1-0.1,0.1-0.1,0.1-0.1C111,25.7,111,25.5,110.9,25.3z M110.9,26.3l-0.8,0.8
		c0.1,0.1,0.2,0.2,0.4,0.3c0.2,0.1,0.4,0.1,0.6,0.1C111.1,26.7,111,26.3,110.9,26.3z"/>
	<path class="st2" d="M115.9,26c-0.2-0.1-0.4-0.4-0.6-0.7c-0.2-0.3-0.3-0.6-0.4-0.9c-0.1-0.3-0.2-0.4-0.2-0.5c0,0-0.2-0.4-0.6-1.3
		c0-0.2-0.1-0.6-0.3-1.1c-0.2-0.5-0.3-0.8-0.3-0.9c0-0.4,0.3-0.6,1-0.6l0.7,0c0.2,0,0.5,0.2,0.7,0.6c0.3,0.4,0.5,0.9,0.6,1.4
		c0.2,0.5,0.3,0.9,0.3,1.1c0.5,1.3,1,2.7,1.6,4.1c0.6,1.4,1.2,2.4,1.7,3.1l0.2-0.2c0.1-0.4,0.3-0.9,0.5-1.3c0.2-0.4,0.3-0.7,0.4-0.9
		c0.3-0.7,0.6-1.3,0.8-1.9l0.2-0.8c1.1-3.6,1.7-5.3,1.8-5.3h2.2l0.2,0.1c0,1.9-0.4,3.8-1.1,5.7s-1.6,4.1-2.8,6.5
		c-0.1,0.1-0.1,0.3-0.2,0.6c-0.1,0.3-0.1,0.5-0.2,0.7c-0.1,0.2-0.2,0.3-0.4,0.5l-1.5,0c-0.5,0-0.9-0.1-1.2-0.2
		c-0.3-0.1-0.6-0.3-0.8-0.6C117.7,30.2,116.8,27.7,115.9,26z M115,22.2c0.3,0.6,0.5,1.2,0.8,1.8c0.3,0.5,0.5,0.8,0.7,0.8
		c0-0.3-0.1-0.7-0.3-1.4c-0.2-0.6-0.5-1.2-0.8-1.7c-0.3-0.5-0.6-0.8-0.8-0.8C114.6,21.2,114.7,21.6,115,22.2z M116.7,25.9
		c0,0.1,0.1,0.1,0.3,0.1c-0.1-0.4-0.2-0.6-0.4-0.7v0.3C116.6,25.7,116.6,25.8,116.7,25.9z M117.3,27.5c0.1,0.4,0.2,0.6,0.2,0.6h0.4
		c0-0.2-0.1-0.5-0.3-0.9c-0.2-0.4-0.4-0.6-0.5-0.7v0.3C117.2,26.8,117.2,27.1,117.3,27.5z M118.1,28.8c0.1,0,0.2,0.1,0.3,0.1
		c0-0.4-0.1-0.6-0.2-0.6c0,0-0.1,0.1-0.1,0.2c-0.1,0.1-0.1,0.2-0.1,0.2C117.9,28.7,118,28.8,118.1,28.8z M118.5,29.9
		c0-0.3,0-0.4-0.1-0.6s-0.2-0.2-0.5-0.3l0,0.2C117.9,29.7,118.1,29.9,118.5,29.9z M118.8,30.8c0.1,0.1,0.3,0.1,0.5,0.1
		c0-0.2,0-0.3-0.1-0.5c0-0.2-0.1-0.3-0.3-0.3c-0.2,0-0.3,0.1-0.3,0.4C118.7,30.6,118.7,30.7,118.8,30.8z M119,31.9
		c0.1,0.4,0.2,0.6,0.3,0.8s0.2,0.3,0.4,0.3c0.3,0,0.6-0.1,1.1-0.2c0.5-0.2,0.7-0.3,0.8-0.5l0.1,0.1c0,0-0.1,0.1-0.2,0.2
		c-0.1,0.1-0.2,0.2-0.2,0.3l0.2,0.2c0.2-0.2,0.5-0.5,0.7-1c0.3-0.5,0.4-0.9,0.4-1.1c-0.1,0-0.3,0.1-0.6,0.2
		c-0.3,0.1-0.5,0.2-0.7,0.4l0.3,0.4c-0.1,0-0.3,0.1-0.6,0.3c-0.3,0.2-0.5,0.3-0.6,0.3c-0.1,0-0.2-0.1-0.4-0.1
		c-0.2-0.1-0.3-0.2-0.5-0.2c0,0,0.1,0,0.1-0.1s0.1-0.1,0.1-0.1c0-0.3,0-0.5-0.1-0.6c-0.1-0.1-0.2-0.2-0.5-0.2l-0.4,0
		C118.9,31.3,118.9,31.6,119,31.9z M121.5,30.9c0,0,0.1,0,0.2,0c0.2,0,0.3,0,0.5-0.1c0.1,0,0.2-0.1,0.2-0.2c0-0.1-0.1-0.3-0.3-0.3
		c-0.2-0.1-0.4-0.1-0.5-0.1L121.5,30.9C121.4,30.8,121.5,30.8,121.5,30.9z M121.9,29c-0.1,0.3-0.1,0.4-0.1,0.6
		c0.1,0,0.3-0.1,0.6-0.3s0.5-0.3,0.7-0.5c-0.1-0.1-0.2-0.2-0.4-0.3c-0.2-0.1-0.4-0.1-0.5-0.1C122.1,28.6,122,28.8,121.9,29z
		 M123.1,30.1v-0.6c-0.1,0-0.2,0-0.3,0.1c-0.1,0-0.3,0.1-0.4,0.1C122.4,29.9,122.7,30,123.1,30.1z M123.5,26.6c0,0-0.1,0-0.3,0
		c-0.2,0-0.3,0.1-0.4,0.2s-0.1,0.4-0.1,0.7c1.4-0.6,2.1-1.2,2.1-1.9l0-0.3c-0.4,0.2-0.8,0.5-1.3,0.7l0.4,0.4
		C123.8,26.5,123.7,26.6,123.5,26.6z M123.5,28.3c0.2,0,0.3-0.1,0.5-0.3c0.1-0.2,0.1-0.4,0.1-0.7c-0.2,0-0.4,0.1-0.6,0.4
		c-0.2,0.2-0.4,0.4-0.5,0.4c-0.1,0-0.1,0-0.2-0.1C122.9,28.1,123.2,28.3,123.5,28.3z M123.4,24.9c-0.1,0.2-0.1,0.4-0.1,0.6
		c0.3,0,0.6-0.1,0.9-0.3c0.3-0.2,0.6-0.4,0.8-0.7h-1.3C123.5,24.5,123.4,24.7,123.4,24.9z M124.3,22.6c-0.2,0.1-0.3,0.4-0.3,0.7
		c0.4,0,0.8-0.3,1.3-1C124.9,22.4,124.5,22.5,124.3,22.6z M124,24l0.8,0c0.2,0,0.4-0.1,0.4-0.2c0-0.1,0.1-0.4,0.1-0.8
		C124.8,23.2,124.3,23.5,124,24z M124.7,21.8c0,0.1,0,0.1-0.1,0.2c-0.1,0.1-0.2,0.1-0.2,0.2c0.4,0,0.7,0,0.9-0.1
		c0.3-0.1,0.4-0.2,0.5-0.4c-0.1-0.2-0.2-0.3-0.2-0.4c0-0.1,0-0.2,0-0.2c-0.4,0-0.7,0-0.9,0.1s-0.3,0.2-0.3,0.6
		C124.7,21.7,124.7,21.7,124.7,21.8z"/>
	<path class="st2" d="M138.4,19.5c0.1,0.1,0.2,0.2,0.2,0.2v2.2l-0.2,0.2c-0.1,0-0.6,0-1.4,0c-0.8,0-1.6,0.1-2.3,0.2l0,0.2
		c0,0.3-0.1,0.6-0.2,1c-0.1,0.4-0.2,0.7-0.2,0.9c0,0,0,0.1,0.1,0.1c0,0.1,0.1,0.1,0.1,0.1v3.1c0.1,0.1,0.2,0.4,0.2,0.9l0,0.8
		c0.1,0,0.2,0.3,0.2,0.7c0,0.5,0.2,0.9,0.5,1.2c0.3,0.4,0.9,0.6,1.8,0.7c0.1,0,0.2,0,0.4,0c0.2,0,0.4,0.1,0.5,0.2
		c0.1,0.1,0.2,0.3,0.2,0.5c0,0.4,0,0.6-0.1,0.8c-0.1,0.2-0.2,0.4-0.3,0.7l-0.3,0.5c-0.3,0-0.7-0.1-1.1-0.2c-0.4-0.1-0.8-0.2-1.2-0.4
		c-1-0.3-1.7-0.5-2.1-0.5c-0.4,0-0.7-0.4-0.8-1.3s-0.2-1.7-0.2-2.5c0-0.6,0-1.1,0.2-1.6c0-0.1,0-0.3,0.1-0.5c0-0.2,0-0.4,0-0.6
		c0-1-0.1-2.6-0.4-4.8c-0.2,0-0.4,0-0.5-0.1s-0.3-0.1-0.4-0.1c-0.5-0.1-0.9-0.2-1.1-0.2c-0.1,0-0.2-0.1-0.4-0.4
		c-0.1-0.3-0.2-0.5-0.2-0.7c0-0.4,0.1-0.7,0.4-0.8c0.3-0.1,0.6-0.2,1.1-0.2c0.3,0,0.5,0,0.6,0c0.1,0,0.2-0.1,0.2-0.2
		c0-0.5,0-0.9,0.1-1.5c0.1-0.5,0.2-0.8,0.3-0.9c0.3,0.1,0.4,0.6,0.4,1.4l0,0.8l0.2,0.2c0,0,0.3-0.1,0.7-0.3c0.4-0.2,0.6-0.4,0.6-0.5
		l0-0.2c0-0.1,0-0.3,0.1-0.7c0.1-0.4,0.1-0.7,0.1-0.8h-0.1c-0.1,0-0.4,0.1-0.8,0.3c-0.4,0.2-0.6,0.3-0.7,0.3
		c0.1-0.1,0.3-0.3,0.8-0.6c-0.4-0.1-0.7-0.2-0.9-0.4c0.2-0.1,0.4-0.2,0.6-0.3c0.2,0,0.4-0.1,0.7-0.1c0.4,0,0.7,0,1-0.1
		c0,0.1,0.1,0.2,0.2,0.3s0.2,0.2,0.2,0.3c0,0.1,0,0.2-0.1,0.3c0,0.2-0.1,0.3-0.1,0.4c0,0.7,0.1,1.2,0.2,1.5c0.1,0.3,0.4,0.5,0.6,0.6
		c0.3,0.1,0.7,0.1,1.4,0.1c0.1,0,0.3,0,0.6-0.1c0.3-0.1,0.5-0.1,0.7-0.1C138.2,19.3,138.3,19.4,138.4,19.5z M134.7,20.2
		c-0.1-0.1-0.3-0.2-0.6-0.5c0,0-0.1-0.1-0.2-0.2c-0.1-0.1-0.2-0.2-0.3-0.2c-0.3,0-0.4,0.1-0.4,0.4h0.2c-0.2,0.3-0.5,0.5-0.9,0.6
		c-0.4,0.1-1,0.3-1.6,0.4c-0.2,0-0.4,0.1-0.6,0.1c-0.2,0-0.3,0.1-0.3,0.1c0,0.1,0.2,0.2,0.7,0.3c0.5,0.1,0.8,0.1,1,0.1l1.7-1.3h0.4
		l-1,0.9v0.2L134.7,20.2z M134,21.2V21c-0.1,0.1-0.2,0.1-0.3,0.2c-0.1,0.1-0.2,0.1-0.3,0.2c-0.6,0.3-1,0.6-1,0.8h0.4L134,21.2z
		 M134.3,31.4l-0.3,0l0.1-1.1c0-0.3-0.1-0.7-0.2-1.1c-0.1-0.4-0.1-0.6-0.2-0.8l-0.2-0.2l0.2-0.2l0-0.7c0-0.5,0-1.1-0.1-1.9
		c-0.1-0.7-0.1-1.4-0.1-2c-0.2,0-0.4,0.1-0.5,0.4c-0.1,0.3-0.2,0.6-0.2,0.9s0,0.4,0.1,0.5c0.1,0.1,0.1,0.1,0.1,0.1
		c0,0.1,0,0.2-0.1,0.3c-0.1,0.1-0.1,0.2-0.1,0.4c0,0.4,0.1,0.6,0.3,0.6h0.1c-0.1,0.1-0.2,0.3-0.2,0.5c-0.1,0.3-0.1,0.5-0.1,0.8
		c0.1,0,0.2,0,0.2,0.2c0,0.1-0.1,0.2-0.2,0.4c-0.1,0.2-0.2,0.3-0.2,0.3c0,0.2,0,0.5,0.2,0.7c0.1,0.2,0.2,0.3,0.2,0.4
		c0,0.2-0.1,0.4-0.3,0.6c0,0.1,0.1,0.2,0.2,0.3c0.1,0.2,0.1,0.2,0.2,0.2c0.1,0,0.3,0,0.4-0.1c0.2,0,0.3-0.1,0.3-0.1
		c-0.1,0.1-0.2,0.2-0.5,0.4c-0.2,0.1-0.4,0.2-0.5,0.2c0,0.9,0.6,1.4,1.7,1.4c0,0.4,0.2,0.6,0.5,0.6c0.1,0,0.2,0,0.3-0.1
		c0.1-0.1,0.2-0.2,0.3-0.3c0,0,0.1,0,0.1,0c0,0,0,0,0.1,0v0.3c0.5,0,0.9-0.3,1.3-0.8c0-0.2-0.5-0.4-1.3-0.4c-0.1,0-0.2,0-0.3,0.1
		c-0.1,0-0.2,0.1-0.3,0.1c0,0,0-0.1,0-0.1c0-0.1-0.1-0.2-0.3-0.3c-0.2-0.1-0.4-0.1-0.5-0.1c-0.1,0-0.3,0-0.5,0.1
		c-0.2,0.1-0.4,0.1-0.5,0.1c0-0.1,0.2-0.2,0.5-0.3c0.3-0.1,0.5-0.2,0.6-0.3l0-0.1C134.6,31.5,134.5,31.4,134.3,31.4z M133.6,22.3
		c-0.2,0-0.5,0.1-0.6,0.3c-0.2,0.2-0.3,0.4-0.3,0.6v0.1c0,0.3,0.1,0.4,0.2,0.5c0.2-0.2,0.4-0.4,0.6-0.6c0.1-0.2,0.2-0.5,0.2-0.7
		L133.6,22.3z M135.2,20.4c-0.1,0.1-0.2,0.2-0.3,0.4c0.1,0,0.3-0.1,0.5-0.2s0.4-0.2,0.4-0.3h-0.2C135.5,20.2,135.3,20.3,135.2,20.4z
		 M137.9,20.5l-0.9,0l-0.9,0c-0.2,0-0.4,0.1-0.7,0.3c-0.3,0.2-0.5,0.3-0.5,0.4v0.2c0.1,0,0.3-0.1,0.6-0.2s0.5-0.3,0.6-0.4l-0.4,0.6
		c0.2,0,0.6,0,1-0.1c0.1,0,0.3,0,0.4-0.1c0.2,0,0.3,0,0.6,0L137.9,20.5z M137.1,33.2c-0.1,0.1-0.2,0.1-0.3,0.3
		c-0.1,0.1-0.1,0.2-0.1,0.3h0.7C137.4,33.5,137.3,33.3,137.1,33.2z"/>
	<path class="st2" d="M163.3,33.6c0,0,0,0.1,0.1,0.3s0.1,0.4,0.1,0.6c-0.3,0-0.7-0.1-1.2-0.2c-0.5-0.1-0.9-0.2-1.1-0.2
		c-0.1-0.2-0.3-0.4-0.6-0.6c-0.2-0.2-0.4-0.3-0.4-0.3c-0.4-0.3-0.7-0.6-0.9-0.9c-0.2-0.3-0.3-0.6-0.3-1c-0.2,0-0.3,0-0.3-0.1
		c0,0,0-0.2,0-0.3c-0.3,0-0.6-0.1-0.8-0.4c-0.2-0.3-0.4-0.7-0.6-1.2c-0.2-0.4-0.3-0.7-0.5-1c-0.2,0-0.4-0.1-0.5-0.3
		c-0.1-0.2-0.2-0.4-0.3-0.6c-0.1-0.2-0.2-0.4-0.2-0.5c-0.1-0.2-0.3-0.4-0.6-0.7c-0.4-0.4-0.6-0.8-0.7-1c-0.1-0.3-0.4-0.9-1-1.7
		c-0.5-0.8-1.1-1.6-1.6-2.3c-0.5-0.7-0.9-1-1-1c-0.1,0-0.2,0.4-0.3,1.1c0,0.8,0,1.6,0.1,2.6c0.1,0.9,0.1,1.5,0.1,1.8
		c0.1,1.7,0.2,3.2,0.2,4.4c0,0.3,0,0.7-0.1,1.1c-0.1,0.4-0.1,0.6-0.1,0.7c-0.1,0.7-0.2,1.3-0.2,1.8c0,0.3-0.2,0.5-0.6,0.6
		c-0.4,0.1-0.9,0.1-1.4,0.1c-0.1,0-0.2,0-0.4-0.1c-0.2,0-0.3-0.1-0.5-0.1c0-0.3-0.1-0.7-0.1-1.2c0-0.5-0.1-0.9-0.1-1.2
		c0-1.2,0.1-3,0.2-5.4c0.1-2.2,0.2-4.1,0.2-5.7c-0.1-0.4-0.2-0.8-0.3-1.3c-0.1-0.5-0.1-0.9-0.1-1.2c0-0.4,0-1,0.1-1.8
		c0.1-0.6,0.2-1.2,0.2-1.8l0-0.7c0.3-0.1,0.6-0.1,0.8-0.2c0.2,0,0.5,0,0.7,0c0.3,0,0.6,0,0.8,0c0.2,0,0.6,0.1,0.9,0.2
		c0.7,1.1,1.1,1.7,1.2,1.8c0.8,1.2,1.4,2.2,1.9,2.9c0.4,0.7,0.8,1.5,1.2,2.3c0,0.1,0.4,0.7,1.1,1.8s1.5,2.1,2.2,3
		c0.7,0.9,1.2,1.4,1.4,1.4c0.2,0,0.3-1.4,0.3-4.2l0-4l-0.2-0.7c0-0.2,0-0.5,0-0.8c0-0.3,0-0.5,0-0.7c0.1-0.5,0.1-1,0.1-1.5
		c0-0.4,0.1-0.7,0.4-0.8s0.7-0.2,1.1-0.2c0.4,0,0.7,0,0.9,0.1c0.2,0,0.3,0.2,0.3,0.3c0,0.1,0,0.2-0.1,0.4c0,0.2-0.1,0.3-0.1,0.4
		c0,0.1,0,0.3,0.1,0.6s0.1,0.5,0.1,0.7c0,0.9,0.1,2,0.2,3.1c0,0.2,0.1,0.6,0.1,1.3c0.1,0.7,0.1,1.3,0.1,1.9c0,0.8-0.1,1.8-0.2,2.9
		c-0.1,1.2-0.2,2.1-0.2,2.7v1c0,1.5,0.1,2.7,0.2,3.7C163.3,33.5,163.3,33.6,163.3,33.6z M149.6,32.1c-0.5,0-0.9,0.1-1.1,0.2
		c-0.2,0.1-0.3,0.4-0.3,0.9h0.5l1-0.9V32.1z M149.5,31.7c0.2,0,0.3-0.2,0.3-0.4c0,0,0-0.1,0-0.2c0-0.1,0-0.1,0-0.2
		c-0.4,0.4-0.8,0.6-1.1,0.6c0.1-0.1,0.2-0.3,0.2-0.5l0-0.6c0-0.1,0.1-0.3,0.3-0.7c0.2-0.4,0.3-0.7,0.3-0.8c-0.5,0.1-0.8,0.2-0.9,0.4
		c-0.1,0.2-0.2,0.5-0.2,1l0,0.6c0,0.3,0,0.5,0.1,0.6c0.1,0.1,0.2,0.2,0.5,0.2C149.1,31.8,149.4,31.8,149.5,31.7z M148.3,14.9
		c0,0,0,0.2,0.2,0.4l0.6-0.4l-0.4-0.2C148.4,14.7,148.3,14.8,148.3,14.9z M148.8,15.6c-0.4,0.4-0.5,0.7-0.5,1c0,0,0,0.1,0.1,0.1
		c0,0,0.1,0.1,0.1,0.1l1.5-1.6l-0.2,0C149.5,15.1,149.1,15.3,148.8,15.6z M151.4,17c0-0.1-0.1-0.2-0.1-0.3c-0.1-0.2-0.1-0.2-0.2-0.2
		c-0.3,0-0.7,0.3-1.4,0.8c-0.6,0.5-1.1,0.9-1.4,1.3h0.2L151.4,17z M148.8,17c-0.3,0.2-0.5,0.4-0.5,0.7h0.2l1.5-0.9h-0.2
		C149.4,16.8,149.1,16.9,148.8,17z M149,18.7c-0.3,0.1-0.5,0.2-0.6,0.3v1.9l0.2,0.2c0.2-0.1,0.4-0.3,0.7-0.6
		c0.3-0.3,0.4-0.5,0.4-0.8c-0.1-0.1-0.1-0.3-0.2-0.5c0-0.2-0.1-0.5-0.1-0.7C149.4,18.5,149.2,18.5,149,18.7z M148.7,27.4
		c-0.2,0.1-0.3,0.2-0.3,0.3c0,0.1,0,0.1,0.1,0.2c0,0.1,0.1,0.1,0.1,0.2l0.8-0.8h-0.2C149,27.3,148.9,27.4,148.7,27.4z M149.6,21.4
		c-0.7,0-1,0.3-1,0.8c0.1,0,0.3-0.1,0.6-0.3c0.3-0.2,0.4-0.3,0.4-0.3V21.4z M148.9,23.3c-0.2,0.1-0.3,0.2-0.3,0.5
		c0,0,0.1,0.2,0.2,0.7c0.3-0.2,0.5-0.4,0.6-0.6c0.1-0.2,0.2-0.4,0.2-0.7C149.4,23.2,149.2,23.2,148.9,23.3z M149.1,25.2
		c-0.2,0.1-0.4,0.2-0.4,0.3c-0.1,0.1-0.1,0.4-0.1,0.7l1-0.9v-0.2C149.5,25.1,149.3,25.2,149.1,25.2z M149.4,22.7
		c0.1-0.1,0.2-0.3,0.2-0.6c-0.2,0-0.4,0.1-0.6,0.3c-0.2,0.2-0.3,0.4-0.3,0.6C149,22.9,149.2,22.8,149.4,22.7z M149.8,26
		c0,0,0-0.1,0-0.2c0-0.1,0-0.1,0-0.2c-0.5,0.5-0.9,0.8-0.9,1.1C149.5,26.8,149.8,26.5,149.8,26z M149.9,27.8c0-0.1-0.1-0.2-0.1-0.3
		c-0.5,0.4-0.8,0.8-0.8,1.2c0.6,0,1-0.2,1-0.7C149.9,28,149.9,27.9,149.9,27.8z M149.8,24.4c0-0.1,0-0.2,0-0.3c0,0-0.1-0.1-0.2-0.1
		c-0.3,0.3-0.5,0.6-0.5,0.8C149.5,24.8,149.8,24.7,149.8,24.4z M149.8,30.1c0.2-0.3,0.3-0.5,0.3-0.8c-0.3,0-0.5,0.1-0.7,0.4
		c-0.2,0.3-0.3,0.5-0.3,0.8C149.4,30.5,149.6,30.4,149.8,30.1z M149.9,15.6c-0.2,0.2-0.3,0.4-0.4,0.6l0.1,0c0,0,0.2-0.1,0.5-0.3
		s0.5-0.3,0.5-0.3c0-0.1,0-0.1-0.1-0.2c-0.1-0.1-0.1-0.1-0.2-0.1C150.3,15.3,150.1,15.4,149.9,15.6z M152.9,19.9
		c0,0.1,0,0.3-0.1,0.5s-0.1,0.4-0.1,0.6c0.8,0,1.2-0.1,1.2-0.3c0-0.5-0.4-1.3-1.3-2.5l-0.9-0.9c-0.1,0-0.4,0.2-1,0.6
		c0.1,0.1,0.2,0.3,0.3,0.5c0.1,0.2,0.2,0.4,0.3,0.4c0.1,0.1,0.2,0.1,0.4,0.1c0,0.4,0,0.7,0.1,0.9c0.1,0.2,0.2,0.4,0.5,0.6l0.5-0.8
		L152.9,19.9z M153.5,22c0.2,0,0.3-0.1,0.4-0.3c0.1-0.2,0.2-0.4,0.2-0.6c-0.2,0-0.4,0-0.6,0c-0.2,0-0.3,0.1-0.4,0.2
		C153.3,21.8,153.4,22,153.5,22z M154.7,23c0.1-0.1,0.2-0.2,0.2-0.3c0-0.2,0-0.3-0.1-0.4c-0.1-0.1-0.3-0.2-0.5-0.4
		c-0.1,0-0.2,0.1-0.3,0.1c-0.1,0.1-0.2,0.2-0.2,0.3c0,0.2,0.1,0.4,0.2,0.5c0.1,0.1,0.2,0.2,0.4,0.2C154.5,23.1,154.6,23.1,154.7,23z
		 M155.3,23.2c-0.3,0-0.5,0-0.6,0.1s-0.2,0.2-0.2,0.4c0,0.2,0.1,0.4,0.4,0.5C155.2,24,155.3,23.7,155.3,23.2z M156.3,25.6
		c0.1-0.2,0.1-0.4,0.1-0.6c0-0.2-0.1-0.5-0.2-0.8s-0.3-0.4-0.5-0.4c0,0-0.1,0.1-0.3,0.3s-0.2,0.4-0.3,0.4c0,0.2,0,0.3,0.1,0.4
		c0.1,0.1,0.3,0.1,0.5,0.1c0.1,0,0.3,0,0.4,0c0.1,0,0.2,0,0.2,0c0,0.1-0.2,0.1-0.3,0.2c-0.2,0.1-0.3,0.1-0.3,0.2
		c0,0.1,0,0.2,0.1,0.3c0.1,0.1,0.1,0.2,0.2,0.2C156.1,25.9,156.2,25.8,156.3,25.6z M158.1,28.3c0,0,0.1,0,0.2-0.1s0.2-0.2,0.2-0.3
		c0-0.1-0.1-0.3-0.3-0.4c-0.2-0.1-0.3-0.2-0.4-0.3c0,0-0.1,0-0.1,0l-0.9-1.9c0,0-0.1,0-0.1,0c-0.2,0-0.3,0.1-0.4,0.3
		c-0.1,0.2-0.1,0.4-0.1,0.7c0,0.3,0,0.4,0.1,0.5c0.1,0.1,0.3,0.2,0.5,0.2c0,0.1,0,0.1,0,0.2c0,0.1,0,0.2,0,0.3
		c0,0.2,0.1,0.3,0.3,0.3c0.1,0,0.1,0,0.2-0.1c0.1,0,0.2-0.1,0.2-0.2c-0.1,0.4-0.2,0.6-0.2,0.6c0,0.1,0.1,0.2,0.4,0.2
		C158,28.3,158.1,28.3,158.1,28.3z M159,29.3c0.2-0.1,0.4-0.2,0.5-0.3c0-0.2,0-0.3,0-0.4c0-0.1-0.1-0.1-0.1-0.1c0,0-0.1,0-0.2,0
		c-0.1,0-0.1,0-0.2,0V28c-0.2,0-0.4,0.1-0.6,0.2c-0.2,0.1-0.3,0.3-0.3,0.5c0,0,0,0.1,0.1,0.1c0,0.1,0.1,0.1,0.1,0.1
		c0.1,0,0.1,0,0.2-0.1c0.1-0.1,0.1-0.1,0.2-0.1v0.6C158.7,29.4,158.8,29.4,159,29.3z M161.9,30.2c0.3-0.7,0.4-1.4,0.4-2.2
		c0-0.2-0.1-0.4-0.2-0.4c-0.3,0-0.5,0.1-0.7,0.2c-0.2,0.2-0.3,0.4-0.4,0.7c-0.1,0.3-0.3,0.6-0.4,0.7c-0.2,0.1-0.4,0.2-0.7,0.2l0-0.1
		c0-0.1-0.1-0.2-0.2-0.3c-0.1,0-0.2,0.1-0.5,0.2s-0.4,0.2-0.5,0.4l0.7,0.8c0.1,0,0.3-0.2,0.8-0.6s0.9-0.5,1.2-0.5
		c0,0.2-0.2,0.6-0.7,1.3c-0.2,0.3-0.3,0.5-0.4,0.5C161.2,31.2,161.7,30.9,161.9,30.2z M160.3,30.8c0.3-0.3,0.5-0.6,0.5-0.8l0-0.1
		c-0.4,0.1-0.7,0.3-1,0.5c-0.3,0.2-0.4,0.5-0.4,0.8C159.7,31.3,160,31.1,160.3,30.8z M160.8,31.6c-0.2,0-0.4,0.1-0.5,0.1
		c-0.1,0.1-0.2,0.2-0.2,0.4C160.6,32.1,160.8,31.9,160.8,31.6z M160.8,18.3h0.2l0.9-0.9l-0.2-0.2l0.4-0.2c0-0.1,0.1-0.3,0.1-0.5
		c0-0.3,0.1-0.5,0.1-0.6c0-0.1,0-0.1-0.1-0.2c0-0.1-0.1-0.1-0.1-0.1H161l-0.2,0.7c0,0.2,0,0.4,0.2,0.6c0.1,0.2,0.2,0.3,0.4,0.4h-0.6
		V18.3z M160.8,19.6c0.1,0,0.3-0.3,0.8-0.8s0.6-0.8,0.6-0.9h-0.2l-1.1,1.1V19.6z M161,20.5c-0.1,0.2-0.2,0.3-0.2,0.3
		c0,0.1,0,0.2,0.1,0.4s0.1,0.3,0.1,0.3h0.2l0.9-0.9c0-0.1-0.2-0.2-0.4-0.3c-0.2-0.1-0.4-0.1-0.5-0.1C161.2,20.3,161.1,20.4,161,20.5
		z M162.2,24.6c0.3-0.4,0.4-0.8,0.4-1c-0.1,0-0.3,0-0.3,0.1c-0.1,0.1-0.2,0.2-0.3,0.3c-0.2,0.3-0.4,0.5-0.6,0.5v-0.3
		c0.3-0.3,0.6-0.5,0.8-0.9c0.2-0.3,0.3-0.6,0.3-1h-0.7c0.1-0.1,0.2-0.2,0.3-0.2c0.1-0.1,0.2-0.1,0.3-0.2c0.1-0.1,0.1-0.2,0.1-0.3
		c0-0.1,0-0.1-0.1-0.2c-0.1-0.1-0.1-0.1-0.2-0.1c-0.2,0-0.5,0.1-0.7,0.4s-0.4,0.5-0.4,0.7h0.2l0,0.1c0,0-0.1,0.2-0.4,0.4
		c-0.1,0.4-0.2,1-0.2,1.9c0,0.2,0,0.4,0.1,0.5c0,0.1,0.1,0.1,0.2,0.2c0.1,0.1,0.1,0.1,0.2,0.2c0,0,0,0.1-0.1,0.2
		c-0.1,0.1-0.1,0.1-0.2,0.1h1.3v-0.8c-0.1,0-0.2,0-0.3,0.1s-0.3,0.1-0.4,0.2C161.7,25.3,162,25,162.2,24.6z M161.6,27.1
		c0.1-0.1,0.2-0.2,0.4-0.4s0.2-0.3,0.2-0.3H161v1.5c0.2,0,0.5-0.1,0.7-0.2c0.3-0.2,0.4-0.3,0.6-0.5H161.6z M161.8,31.9
		c0.2-0.2,0.3-0.4,0.3-0.7h-0.2l-0.9,0.9C161.3,32.2,161.6,32.1,161.8,31.9z M162.1,32.3l-0.9,0.4v0.4l0.7,0.2h0
		c0.1,0,0.2-0.2,0.2-0.6V32.3z M161.9,18.8c-0.4,0.5-0.6,0.8-0.6,1c0,0.2,0.3,0.3,0.8,0.3C162.2,19.3,162.1,18.8,161.9,18.8z"/>
	<path class="st2" d="M169.7,33.2c-0.7-0.6-1.2-0.9-1.3-0.9c-0.1,0-0.2,0-0.2,0c-0.1,0-0.2,0.1-0.2,0.1c0-0.2-0.3-0.7-0.9-1.6
		c-1-1.4-1.5-2.4-1.5-2.8c0-0.1,0-0.2,0-0.4l0-0.9c0-0.3-0.1-0.6-0.2-0.9v-4c0.1-0.1,0.2-0.3,0.3-0.6c0.1-0.2,0.1-0.5,0.2-0.6
		c0-0.2,0.1-0.3,0.1-0.4c0.1-0.8,0.3-1.3,0.4-1.6c1.1-1.7,2.5-2.9,4.1-3.6c1.6-0.7,3.6-1.1,5.8-1.1c1.5,0,2.3,0.2,2.3,0.6h1.1
		c0,0.2,0.1,0.2,0.3,0.2c0.2,0,0.3,0,0.3,0c0,0,0.2,0.1,0.5,0.2c0.3,0.1,0.5,0.2,0.7,0.3l0,0.1c0,0.1,0,0.2,0.1,0.2
		c0.1,0,0.1,0.3,0.1,0.8c0,0.9-0.2,1.4-0.6,1.4c-0.7,0-1.6-0.1-2.6-0.4c-1.1-0.2-2-0.4-2.6-0.4c-0.4,0-0.9,0.1-1.2,0.2
		c-0.4,0.1-0.9,0.3-1.5,0.6c-1.6,0.7-2.8,1.6-3.4,3c-0.7,1.3-1,2.9-1,4.8c0,1.6,0.3,3,0.9,4.3s1.6,2,2.8,2.2c0.4,0,0.8,0.1,1,0.1
		c1.4,0.2,2.6,0.2,3.6,0.2l1.7,0c0.3-0.2,0.5-0.8,0.5-1.7c0-0.3-0.1-0.6-0.1-1.1c-0.1-0.5-0.1-0.9-0.2-1.3c-0.1-0.3-0.2-0.4-0.3-0.5
		c-0.1-0.1-0.3-0.1-0.6-0.1l-0.4,0c-0.4,0-0.6-0.1-0.8-0.3c-0.2-0.2-0.3-0.7-0.3-1.4c0-0.8,0.2-1.1,0.5-1.1c0.1,0,0.2,0,0.2,0
		c0.3,0,0.6,0,1.1,0l2.3,0c0.4,0,0.7,0,1,0.1c0.3,0.1,0.5,0.1,0.5,0.3v7.4c0,0.7-0.3,1.3-0.9,1.6c-0.6,0.3-1.3,0.5-2.1,0.5
		c-0.1,0-0.2,0-0.4-0.1s-0.2-0.1-0.3-0.1c-0.3,0.2-0.6,0.4-1.1,0.4c-0.5,0.1-1.1,0.1-1.8,0.1h-0.9c-0.8,0-1.5,0-2.1-0.1
		c-0.6-0.1-1-0.3-1.4-0.6C170.8,34.2,170.5,33.8,169.7,33.2z M168.2,31.2c0.5,0.6,0.9,1,1.2,1.3c0.4,0.3,0.8,0.4,1.2,0.4
		c0,0,0.2-0.1,0.4-0.2c0,0-0.1-0.1-0.1-0.1c0,0-0.1-0.1-0.1-0.1c-0.3-0.2-0.4-0.3-0.4-0.4V32c0-0.1,0-0.2-0.1-0.2
		c-0.2-0.2-0.5-0.4-0.7-0.4c-0.1,0-0.2,0-0.2-0.1s-0.2-0.2-0.3-0.3c-0.2-0.3-0.5-0.9-0.9-2s-0.7-1.7-0.7-1.9c0,0,0-0.1,0.1-0.1
		c0.1,0,0.1-0.1,0.1-0.2s0-0.2-0.1-0.4c-0.1-0.2-0.2-0.3-0.3-0.5l0.4-0.2v-1.3c0-0.1-0.3-0.2-1-0.2l0.2-0.1l-0.2-0.2h1v-0.4
		l-0.2-0.5c-0.1-0.1-0.2-0.2-0.3-0.3c-0.1-0.1-0.1-0.2-0.1-0.3c-0.8,0-1.3,0.1-1.3,0.2v1.5c0.2,0,0.3,0.1,0.3,0.3c0,0.1,0,0.2,0,0.3
		c0,0.1,0,0.2,0,0.3c0,0.1,0,0.2,0.1,0.3c0.1,0.1,0.2,0.1,0.4,0.1c0.2,0,0.3,0,0.4,0c-0.1,0.1-0.2,0.2-0.4,0.2
		c-0.2,0-0.3,0.1-0.4,0.2c-0.1,0.1-0.2,0.2-0.2,0.3c0,0.1,0,0.2,0.1,0.4c0.1,0.2,0.1,0.4,0.1,0.6l0,1.1c0.1,0.1,0.2,0.2,0.3,0.5
		s0.1,0.4,0.1,0.4c0,0.1,0.2,0.3,0.4,0.5c0.2,0.2,0.3,0.3,0.3,0.4l0,0.1C167.5,30.4,167.8,30.7,168.2,31.2z M166.5,22.1h1.3
		c0-0.2-0.1-0.3-0.2-0.5s-0.3-0.3-0.4-0.4h0.1c0.1,0,0.2,0,0.3,0.1s0.3,0.1,0.3,0.1c-0.1-0.2-0.2-0.3-0.2-0.4c0-0.1,0.1-0.1,0.3-0.2
		s0.3-0.1,0.3-0.2c0-0.1,0-0.3-0.1-0.4c-0.1-0.1-0.1-0.3-0.1-0.4l0-0.3l0.6,0.6c0.1-0.1,0.3-0.2,0.4-0.5c0.1-0.2,0.2-0.4,0.2-0.4
		c-0.3-0.1-0.5-0.3-0.5-0.4c0.1,0,0.2-0.2,0.2-0.4c0-0.1,0-0.2,0-0.3c0-0.1,0-0.2,0-0.2c0.2,0.2,0.3,0.4,0.4,0.4
		c0.1,0.1,0.2,0.1,0.4,0.1c0.2,0,0.3-0.1,0.4-0.3c0.1-0.2,0.2-0.4,0.2-0.6c0.1-0.2,0.1-0.3,0.1-0.4c0.1,0.3,0.2,0.5,0.4,0.6
		c0.1,0,0.1-0.1,0.2-0.1c0-0.1,0-0.1,0-0.2c0-0.1,0-0.2-0.1-0.4c-0.1-0.2-0.2-0.3-0.3-0.4l0-0.1l0.6,0.4l0.2-0.2l-0.2-0.9
		c-0.3,0.1-0.5,0.3-0.6,0.5c-0.1,0.2-0.2,0.5-0.3,0.8c-0.1-0.2-0.2-0.4-0.4-0.6c-0.7,0.5-1,0.8-1,0.9c0,0,0.1,0.1,0.3,0.1
		s0.3,0.1,0.3,0.1c0,0,0,0,0,0.1c0,0,0,0.1,0,0.1h-1c-0.1,0-0.2,0.1-0.5,0.4c-0.3,0.3-0.5,0.5-0.6,0.7c-0.1,0.1-0.4,0.6-0.7,1.5
		c-0.3,0.9-0.5,1.3-0.5,1.3C166.1,22,166.2,22.1,166.5,22.1z M171.8,33.7c0.1,0,0.2,0,0.3-0.1c0,0,0.1-0.1,0.2-0.2
		c0-0.1,0.1-0.2,0.2-0.3c0-0.1-0.2-0.2-0.5-0.2c-0.3,0-0.5,0-0.7,0.1c-0.2,0-0.3,0.1-0.4,0.3C171.1,33.5,171.4,33.7,171.8,33.7z
		 M171.9,17c0.3,0,0.5-0.1,0.7-0.4c-0.3-0.4-0.6-0.6-0.9-0.6C171.7,16.7,171.8,17,171.9,17z M172.2,15.8c0.2,0.1,0.3,0.2,0.4,0.2
		c0.3-0.4,0.4-0.8,0.4-1.1c-0.6,0.2-1,0.4-1.1,0.6C171.9,15.6,172.1,15.7,172.2,15.8z M172.8,33.1c-0.2,0.1-0.2,0.3-0.2,0.7
		c0.4,0,0.6-0.1,0.8-0.2c0.2-0.1,0.2-0.3,0.2-0.7C173.2,32.9,172.9,33,172.8,33.1z M173.1,16c-0.1,0.3-0.1,0.5-0.1,0.7
		c0.2,0,0.3-0.1,0.5-0.2c0.2-0.1,0.2-0.3,0.2-0.5v-0.2c0-0.5-0.1-0.8-0.3-0.8l-0.1,0C173.3,15.4,173.2,15.7,173.1,16z M173.7,33.7
		c0,0.1,0.1,0.1,0.4,0.2c0.3,0,0.5,0.1,0.7,0.1c0-0.6-0.3-0.8-0.9-0.8c0,0-0.1,0.1-0.1,0.2C173.8,33.4,173.7,33.5,173.7,33.7
		L173.7,33.7z M174.1,15.4c0.1,0.2,0.3,0.3,0.3,0.3c0.1,0,0.2-0.1,0.2-0.3c0-0.2,0.1-0.4,0.1-0.5h-0.8
		C173.9,15.1,173.9,15.2,174.1,15.4z M175.5,33.8c0.2,0,0.3,0,0.5,0c0.1,0,0.3-0.1,0.4-0.2h2l0.2-0.2c-1.5-0.1-2.6-0.2-3.2-0.2
		l-0.4,0C175,33.6,175.1,33.8,175.5,33.8z M175.2,15.9h0.6c0,0,0-0.2-0.1-0.3c-0.1-0.2-0.2-0.3-0.3-0.4
		C175.2,15.3,175.2,15.6,175.2,15.9z M176.7,15.1h-0.4l0.2,0.4C176.6,15.5,176.7,15.3,176.7,15.1z M177.2,26.5c0.1,0,0.1,0,0.2,0
		c0.1,0,0.4-0.1,0.9-0.4s0.7-0.4,0.9-0.5h-1.6l-0.4,0.8C177,26.5,177.1,26.5,177.2,26.5z M177.4,16.1h0.5c0-0.1,0-0.2-0.1-0.3
		c0-0.1-0.1-0.2-0.2-0.3C177.4,15.6,177.4,15.8,177.4,16.1z M177.8,26.8L177.8,26.8c0.1,0,0.4-0.2,0.9-0.5h-0.1
		C178.4,26.2,178.1,26.4,177.8,26.8z M180.1,29.2c-0.1,0.1-0.2,0.1-0.3,0.2c-0.1,0.1-0.1,0.2-0.1,0.3c0.5,0,0.8-0.2,1-0.7
		c0.2-0.5,0.3-0.9,0.3-1.4c0-0.5,0-1.1,0-1.8l-0.2-0.2h-1.4l-0.8,0.9l0.2,0c0.1,0,0.3-0.1,0.6-0.2c0.1,0,0.2,0,0.3-0.1
		c0.1,0,0.2-0.1,0.3-0.1c0,0.2-0.1,0.4-0.3,0.6c-0.2,0.3-0.3,0.5-0.3,0.7h1.1c0,0.2-0.2,0.5-0.5,0.8c-0.3,0.3-0.5,0.5-0.5,0.7h0.6
		C180.3,29.1,180.2,29.2,180.1,29.2z M179.2,33.4c0.1,0,0.2,0,0.3,0c0.1,0,0.1,0,0.2,0c0.6,0,1-0.1,1.1-0.4
		c-0.2-0.1-0.3-0.1-0.5-0.2c-0.2,0-0.3,0-0.5,0c-0.2,0-0.4,0-0.5,0.1c-0.1,0-0.3,0.1-0.4,0.3C179,33.4,179.1,33.4,179.2,33.4z
		 M180.1,16.7c0.3,0,0.5,0,0.5,0c0-0.1-0.1-0.3-0.3-0.5c-0.2-0.2-0.3-0.3-0.3-0.3c-0.1,0-0.2,0.1-0.3,0.3c-0.1,0.1-0.2,0.3-0.3,0.3
		C179.6,16.6,179.8,16.7,180.1,16.7z M179.7,27.9c-0.1,0.1-0.2,0.3-0.2,0.6h0.3l0.5-0.7h-0.1C180,27.7,179.8,27.8,179.7,27.9z
		 M180.2,32.5c0.3,0.1,0.5,0.2,0.5,0.2c0.1,0,0.1-0.1,0.2-0.3s0.1-0.3,0.1-0.5c-0.8,0-1.2,0.1-1.2,0.3
		C179.8,32.3,179.9,32.4,180.2,32.5z M180.6,30.5c0.2-0.2,0.3-0.4,0.3-0.7c-0.4,0-0.7,0.1-0.9,0.4l0.4,0l-0.2,0.2l-0.4,0.1v0.3
		C180.1,30.7,180.4,30.6,180.6,30.5z M180,31.4h0.9v-0.8L180,31V31.4z"/>
	<path class="st2" d="M201.2,18.4c0.5,0.7,0.9,1.5,1.2,2.4s0.4,1.9,0.4,3.1c0,0.7-0.1,1.4-0.2,2.1c-0.1,0.7-0.3,1.4-0.5,2.3
		l-0.3,1.5c0,0.2-0.2,0.5-0.4,0.8c-0.1,0.2-0.2,0.3-0.3,0.4c0,0.1-0.1,0.3-0.1,0.5c0,0.1,0,0.2,0,0.2c-0.6,1.1-1.6,1.8-3,2.2
		c-1.4,0.4-2.9,0.6-4.4,0.6l-3.5-0.4l-2.8-1.3h-0.2c-0.1-0.1-0.3-0.2-0.6-0.4c-0.3-0.2-0.5-0.4-0.7-0.6c-0.3-0.3-0.7-0.8-1-1.5
		s-0.6-1.6-0.9-2.4s-0.4-1.5-0.4-2c0-0.1,0-0.2,0-0.3c0,0-0.1,0-0.1-0.1c0-0.1-0.1-0.1-0.1-0.1c0-0.4,0.1-0.8,0.2-1.4
		c0.1-0.4,0.1-0.7,0.1-0.9c0.2-1.4,0.4-2.5,0.8-3.4s0.9-1.7,1.5-2.4c0.7-0.7,1.6-1.4,2.7-2.1l0.1,0c0.2,0,0.8-0.1,1.6-0.3
		c1.1-0.3,1.8-0.4,2.2-0.4h0.8l1.1,0.2c0.3,0.1,0.9,0.2,1.7,0.3s1.3,0.3,1.5,0.4c0.1,0,0.3,0.1,0.5,0.2s0.4,0.2,0.6,0.4
		C199.9,16.7,200.7,17.6,201.2,18.4z M184.6,25.1c-0.1,0.2-0.2,0.4-0.2,0.7c0.3,0,0.5-0.1,0.6-0.3c0.1-0.2,0.2-0.4,0.2-0.7
		C184.9,24.8,184.7,24.9,184.6,25.1z M184.5,23.5l0.2,0c0.1,0,0.3,0,0.5-0.1s0.3-0.2,0.3-0.4c0-0.1-0.1-0.2-0.3-0.3
		c-0.2-0.1-0.3-0.1-0.5-0.1C184.7,23,184.6,23.3,184.5,23.5z M185.2,26.1c-0.1,0.1-0.2,0.3-0.3,0.5l0.4,0c0.2,0,0.3,0,0.4-0.1
		c0.1,0,0.2-0.1,0.2-0.3c0-0.3-0.1-0.4-0.2-0.4C185.4,25.9,185.3,25.9,185.2,26.1z M185.1,20.9c0.3,0,0.6-0.1,0.8-0.2
		c0-0.1-0.1-0.2-0.3-0.3c-0.1-0.1-0.2-0.1-0.3-0.1C185.2,20.3,185.1,20.5,185.1,20.9z M185.2,21.8c0,0,0.1,0.1,0.2,0.1
		c0.1,0.1,0.2,0.1,0.2,0.1c0.1,0,0.1-0.1,0.2-0.2s0.1-0.2,0.1-0.3C185.5,21.6,185.3,21.6,185.2,21.8z M185.8,29.2c0,0,0-0.1-0.1-0.1
		c0,0-0.1-0.1-0.1-0.1c-0.1,0-0.1,0.1-0.2,0.1c-0.1,0-0.1,0.1-0.2,0.1c0.1,0.1,0.2,0.2,0.2,0.4L185.8,29.2z M186.2,28.1v-0.2
		c-0.2,0-0.3,0.1-0.4,0.2H186.2z M186.1,18.7c-0.1,0.1-0.1,0.3-0.1,0.3c0.3,0,0.6-0.1,1-0.2c0-0.1-0.1-0.1-0.3-0.2
		c-0.2-0.1-0.3-0.1-0.3-0.1C186.2,18.5,186.1,18.6,186.1,18.7z M186.2,29.5c-0.1,0.1-0.1,0.2-0.1,0.3c0.3,0,0.5-0.1,0.5-0.3l0-0.1
		C186.4,29.4,186.3,29.4,186.2,29.5z M187.3,30.5h-1c0,0.1,0.1,0.3,0.3,0.6c0.2,0.3,0.3,0.4,0.4,0.4
		C187.2,31.5,187.3,31.1,187.3,30.5z M196.4,32.1c0.8-0.2,1.4-0.6,1.8-1.1c0.5-0.6,0.9-1.4,1.2-2.5l0-2.3c0-1.4,0-2.5-0.1-3.3
		c0-0.8-0.2-1.7-0.5-2.6c-0.3-0.9-0.8-1.6-1.4-2.2c0,0-0.1,0-0.1,0c-0.1,0-0.6-0.1-1.4-0.5c-1-0.4-1.6-0.5-1.8-0.5
		c-0.1,0-0.3,0-0.4,0.1c-0.2,0.1-0.3,0.1-0.3,0.1c-0.2,0.1-0.5,0.2-0.7,0.2c-0.1,0-0.2,0-0.3-0.1c-0.1-0.1-0.2-0.1-0.3-0.1
		c-1,0-2,0.4-2.8,1.1s-1.6,1.6-2.1,2.6c-0.5,1-0.8,2-0.8,3c0,0.2,0.1,0.8,0.2,1.8c0.1,1,0.3,1.8,0.5,2.6c0.2,0.8,0.3,1.2,0.5,1.2
		l0.4,0c0.1,0,0.2,0.1,0.2,0.2c0.1,0.1,0.1,0.3,0.1,0.4c0,0.1,0.2,0.3,0.4,0.5c0.2,0.3,0.4,0.4,0.4,0.5c0.2,0,0.3,0,0.4,0.1
		c0.1,0,0.2,0.1,0.2,0.2c0.1,0.2,0.2,0.3,0.4,0.4c0.2,0.1,0.4,0.2,0.6,0.2c0.2,0,0.4,0.1,0.4,0.1c0.5,0,0.9,0.1,1.1,0.3l1.2,0
		C194.7,32.4,195.7,32.3,196.4,32.1z M187.5,17.9c-0.2,0-0.4,0-0.6,0c0.1,0.1,0.3,0.3,0.5,0.4s0.3,0.2,0.4,0.2
		c0.1,0,0.1-0.1,0.2-0.2c0.1-0.1,0.2-0.2,0.2-0.2C187.9,18,187.7,18,187.5,17.9z M187.8,16.8c0,0,0.1,0.1,0.1,0.2
		c0.1,0.1,0.2,0.2,0.3,0.4c0.1,0.1,0.3,0.2,0.6,0.2c0.3,0,0.5-0.1,0.7-0.4c-0.1,0-0.1-0.1-0.2-0.2c-0.1-0.1-0.2-0.2-0.2-0.2
		c0-0.1,0-0.1,0.1-0.2c0-0.1,0.1-0.1,0.1-0.2c0.1,0,0.3,0,0.4,0.1c0.1,0.1,0.3,0.1,0.5,0.1c0.3,0,0.5,0,0.7-0.1
		c0.2-0.1,0.3-0.3,0.5-0.6c0,0.2,0.2,0.2,0.5,0.2c0.3,0,0.6,0,1-0.1c0.4-0.1,0.6-0.2,0.6-0.5c0,0,0,0.1,0.1,0.2
		c0,0.1,0.1,0.2,0.1,0.2c0,0,0,0,0,0c0.1,0,0.2-0.1,0.3-0.1c0.1,0,0.2-0.1,0.3-0.1c0,0.1,0.1,0.1,0.2,0.3c0.1,0.1,0.3,0.2,0.6,0.4
		c0.2,0.1,0.5,0.2,0.8,0.2c0.1,0,0.2,0,0.3-0.1c0.1,0,0.2-0.1,0.2-0.2c0.2,0.4,0.5,0.8,0.9,1c0.5,0.3,1,0.6,1.7,0.8
		c0,0.2,0,0.3,0.1,0.5c0.1,0.2,0.2,0.3,0.3,0.3c0.2,0,0.3-0.1,0.4-0.2c0.1-0.1,0.2-0.3,0.2-0.4c0-0.2-0.2-0.3-0.6-0.3l-1.8-1.9
		c-0.3-0.3-1.1-0.6-2.4-0.7c-1.3-0.2-2.3-0.2-3-0.2c-0.3,0-0.6,0-0.8,0.1c-0.2,0.1-0.3,0.2-0.3,0.5c0-0.1-0.1-0.2-0.2-0.2
		c-0.1-0.1-0.2-0.1-0.2-0.1c-0.1,0-0.4,0.1-1,0.4c-0.6,0.3-1,0.5-1.2,0.6l0.4,0.3L187.8,16.8L187.8,16.8z M188.2,31.6h-0.4v0.2
		C188,31.8,188.1,31.7,188.2,31.6z M190.8,33c0.1-0.1,0.2-0.2,0.2-0.3h-0.2c-0.4,0-0.6,0.1-0.7,0.2c0,0,0,0.1,0.1,0.1
		c0,0,0.1,0.1,0.1,0.1C190.6,33.1,190.7,33.1,190.8,33z M194.5,33.7l0.7-0.4h-0.7V33.7z M198.8,32.4c0.8-0.4,1.4-1,1.8-1.7
		c0.5-0.7,0.7-1.5,0.7-2.3c-0.3,0-0.6,0.1-0.8,0.2c-0.2,0.2-0.3,0.4-0.3,0.7h0.6c-0.1,0.1-0.2,0.2-0.3,0.2c-0.2,0.1-0.3,0.1-0.4,0.2
		c-0.1,0-0.2,0.1-0.2,0.3c0,0,0.2,0.3,0.6,0.6c-0.4,0-0.7,0.1-0.8,0.1c-0.1,0.1-0.2,0.2-0.3,0.3c0,0,0,0.1-0.1,0.2s-0.2,0.3-0.3,0.5
		c-0.3,0.3-0.6,0.5-1.1,0.8c-0.5,0.2-0.9,0.4-1.4,0.5C197.3,33.1,198.1,32.9,198.8,32.4z M201.5,20.2c-0.1-0.4-0.3-0.8-0.5-1.1
		s-0.5-0.5-0.7-0.5c-0.1,0-0.3,0.1-0.5,0.4c-0.2,0.3-0.3,0.4-0.3,0.5c0,0.1,0.1,0.1,0.2,0.2c0.1,0.1,0.2,0.2,0.3,0.2
		c0,0,0.1,0,0.1,0c-0.1,0.2-0.2,0.4-0.2,0.6c0.1,0,0.3-0.1,0.4-0.2s0.3-0.2,0.5-0.2c0,0-0.1,0.1-0.4,0.4c-0.2,0.2-0.3,0.4-0.3,0.5
		l0,0l0.2,0.2h1.5C201.7,21,201.6,20.7,201.5,20.2z M200,21.9c0.1,0.1,0.2,0.1,0.2,0.1c0.1,0,0.2,0,0.4-0.1s0.4-0.2,0.5-0.3
		c-0.1,0-0.3,0-0.6,0c-0.3,0-0.6,0.1-0.7,0.2C199.9,21.8,199.9,21.9,200,21.9z M202,22.1c0-0.2-0.1-0.3-0.1-0.5
		c-0.2,0-0.5,0.1-0.9,0.3c-0.4,0.2-0.7,0.4-1,0.6l1.5,0.5h-1.3c0,0.1,0,0.3,0.1,0.4s0.1,0.3,0.2,0.3c0.3,0,0.6-0.1,1-0.4
		c0.4-0.2,0.6-0.5,0.6-0.8C202.1,22.4,202,22.3,202,22.1z M201.9,27.2c0.1-0.6,0.2-1.2,0.2-1.8l0-0.5l-2,0.5l0.7,0.7
		c-0.1,0-0.2,0-0.4,0.1s-0.2,0.1-0.2,0.2s0,0.1,0.1,0.2c0.1,0,0.2,0.1,0.3,0.1c0.1,0,0.2,0,0.4-0.1c0.2,0,0.4-0.1,0.5-0.1
		c-0.1,0.1-0.3,0.2-0.6,0.3c-0.2,0-0.3,0.1-0.4,0.1s-0.1,0.1-0.1,0.3c0,0.1,0,0.2,0.1,0.2c0.1,0.1,0.1,0.1,0.1,0.1
		c0,0.1,0,0.2-0.1,0.3c-0.1,0.1-0.1,0.2-0.1,0.3c0.3,0,0.5-0.1,0.6-0.2c0,0,0,0.1,0.1,0.1c0,0,0.1,0.1,0.1,0.1
		C201.5,28.1,201.8,27.8,201.9,27.2z M201.5,24.6c0.5,0,0.7-0.1,0.7-0.4v-0.2c0-0.4-0.1-0.6-0.2-0.6c-0.2,0-0.5,0.1-0.9,0.3
		c-0.4,0.2-0.6,0.4-0.8,0.6c0.1,0.2,0.4,0.2,0.7,0.2h0.3H201.5z"/>
</g>
</svg>
